<svg id="web-logo-toopo" xmlns="http://www.w3.org/2000/svg" width="189.423" height="35.786" viewBox="0 0 189.423 35.786">
  <path id="Caminho_1" data-name="Caminho 1" d="M249.6,48.722a9.213,9.213,0,0,1-4.094-.92,8.093,8.093,0,0,1-3.036-2.484,5.851,5.851,0,0,1-1.1-3.45,6.058,6.058,0,0,1,2.438-4.968,13.58,13.58,0,0,1,6.671-2.484l7.269-1.012v-1.61a4.8,4.8,0,0,0-1.564-3.864,6.808,6.808,0,0,0-4.692-1.38,7.356,7.356,0,0,0-3.864.92,4.152,4.152,0,0,0-1.886,2.208,1.7,1.7,0,0,1-.46.782,1.007,1.007,0,0,1-.644.184h-.644a.95.95,0,0,1-1.012-1.012,4.323,4.323,0,0,1,.92-2.346,7.511,7.511,0,0,1,2.852-2.392,10.117,10.117,0,0,1,4.738-1.012q4.923,0,6.993,2.346a8.32,8.32,0,0,1,2.07,5.7V47.25a.95.95,0,0,1-1.012,1.012h-.782a.95.95,0,0,1-1.012-1.012V45.088a8.055,8.055,0,0,1-2.99,2.576A10.737,10.737,0,0,1,249.6,48.722Zm.46-2.668a7.394,7.394,0,0,0,5.52-2.208,8.7,8.7,0,0,0,2.162-6.349V35.933l-5.935.828a14.242,14.242,0,0,0-5.7,1.748,3.646,3.646,0,0,0-1.932,3.128,3.685,3.685,0,0,0,1.748,3.266A7.5,7.5,0,0,0,250.063,46.054Z" transform="translate(-134.6 -13.317)" fill="#e85128"/>
  <path id="Caminho_2" data-name="Caminho 2" d="M291.794,48.842a.95.95,0,0,1-1.012-1.012V25.978a1,1,0,0,1,.276-.736.92.92,0,0,1,.736-.322h.736a1.1,1.1,0,0,1,1.058,1.058v2.116q1.656-3.174,6.257-3.174h1.7a.95.95,0,0,1,1.012,1.012v.644a.95.95,0,0,1-1.012,1.012h-1.978a5.557,5.557,0,0,0-5.98,5.981V47.83a.921.921,0,0,1-.322.736,1,1,0,0,1-.736.276Z" transform="translate(-162.156 -13.897)" fill="#e85128"/>
  <path id="Caminho_3" data-name="Caminho 3" d="M332.589,37.823q-3.4,0-4.83-2.024a9.839,9.839,0,0,1-1.426-5.658V16.569h-3.588a.95.95,0,0,1-1.012-1.012v-.644a.95.95,0,0,1,1.012-1.012h3.588V6.172a.95.95,0,0,1,1.012-1.012h.782a.95.95,0,0,1,1.012,1.012V13.9h5.7a.95.95,0,0,1,1.012,1.012v.644a.95.95,0,0,1-1.012,1.012h-5.7V29.956a7.494,7.494,0,0,0,.828,3.91,3.2,3.2,0,0,0,2.852,1.288H335.3a.95.95,0,0,1,1.012,1.012v.644a.95.95,0,0,1-1.012,1.012Z" transform="translate(-179.415 -2.877)" fill="#e85128"/>
  <path id="Caminho_4" data-name="Caminho 4" d="M29.169,5.738,38.586,0l5.781,9.417-4.587-1.11L33.024,34.994H24.877L19.753,19.84h-.088l-4.73,15.154H4.993L0,15.592H7.533l2.628,10.292h.088L15.11,9.942h8.5L28.469,23.87h.088L32.944,6.651Z" fill="#e85128"/>
  <path id="Caminho_5" data-name="Caminho 5" d="M113.833,35c0-7.387-5.441-13.4-12.961-13.4A13.095,13.095,0,0,0,101,47.787c5.529,0,9.864-3.583,11.988-8.493h-7.52a5.265,5.265,0,0,1-4.468,2.3,5.506,5.506,0,0,1-5.75-4.645h18.4A9.658,9.658,0,0,0,113.833,35ZM106.49,32H95.343a5.8,5.8,0,0,1,11.147,0Z" transform="translate(-49.074 -12.045)" fill="#e85128"/>
  <path id="Caminho_6" data-name="Caminho 6" d="M177.189,25.3c0-5.087-2.167-9.555-6.9-11.766a12.474,12.474,0,0,0-5.175-1.194,9.269,9.269,0,0,0-7.122,2.787V5h-7.343V37.734h7.033v-2.61h.088c1.283,2.389,4.512,3.45,7.033,3.45C172.456,38.574,177.189,32.691,177.189,25.3Zm-7.343.133a6.111,6.111,0,0,1-6.149,6.281c-3.583,0-5.972-2.831-5.972-6.326a6.062,6.062,0,1,1,12.12.044Z" transform="translate(-84.01 -2.788)" fill="#e85128"/>
  <path id="Caminho_7" data-name="Caminho 7" d="M223.737,69.52V62h-7.653v7.52Z" transform="translate(-120.5 -34.575)" fill="#e85128"/>
  <path id="Caminho_8" data-name="Caminho 8" d="M363.708,12.17a2.7,2.7,0,0,1-1.9-.628,2.419,2.419,0,0,1-.717-1.752q-.009-.257-.009-.823t.009-.823a2.293,2.293,0,0,1,.725-1.716,2.708,2.708,0,0,1,1.893-.628,3.177,3.177,0,0,1,1.4.283,2.222,2.222,0,0,1,.894.69,1.47,1.47,0,0,1,.318.805.18.18,0,0,1-.053.133.192.192,0,0,1-.142.053h-.929a.21.21,0,0,1-.133-.035.3.3,0,0,1-.08-.115,1.233,1.233,0,0,0-.434-.557,1.38,1.38,0,0,0-.84-.23,1.355,1.355,0,0,0-.973.336,1.409,1.409,0,0,0-.363,1.026q-.009.257-.009.779t.009.779a1.479,1.479,0,0,0,.372,1.062,1.355,1.355,0,0,0,.973.336,1.467,1.467,0,0,0,1.009-.336,1.276,1.276,0,0,0,.38-1.009V9.524h-1.079a.211.211,0,0,1-.212-.212V8.825a.211.211,0,0,1,.212-.212h2.123a.215.215,0,0,1,.159.062.205.205,0,0,1,.062.15v.938a2.457,2.457,0,0,1-.327,1.283,2.159,2.159,0,0,1-.929.832A3.189,3.189,0,0,1,363.708,12.17Z" transform="translate(-201.358 -3.234)" fill="#e85128"/>
  <path id="Caminho_9" data-name="Caminho 9" d="M375.8,12.193a.211.211,0,0,1-.212-.212V6.221a.236.236,0,0,1,.053-.159A.215.215,0,0,1,375.8,6h2.291a2.593,2.593,0,0,1,1.7.5,1.743,1.743,0,0,1,.619,1.433,1.853,1.853,0,0,1-.31,1.088,1.733,1.733,0,0,1-.867.628l1.283,2.256a.22.22,0,0,1,.027.1.168.168,0,0,1-.062.133.17.17,0,0,1-.124.053h-.814a.352.352,0,0,1-.221-.062.715.715,0,0,1-.142-.177l-1.132-2.1h-1.212V11.98a.205.205,0,0,1-.062.15.217.217,0,0,1-.159.062Zm2.265-3.344a1.188,1.188,0,0,0,.8-.23.88.88,0,0,0,.265-.69.88.88,0,0,0-.265-.69,1.13,1.13,0,0,0-.8-.248h-1.23V8.849Z" transform="translate(-209.446 -3.346)" fill="#e85128"/>
  <path id="Caminho_10" data-name="Caminho 10" d="M391.142,12.17a2.7,2.7,0,0,1-1.884-.61,2.43,2.43,0,0,1-.708-1.814q-.009-.257-.009-.752t.009-.761a2.421,2.421,0,0,1,.725-1.8,3.075,3.075,0,0,1,3.725,0,2.4,2.4,0,0,1,.734,1.8q.018.513.018.761t-.018.752a2.411,2.411,0,0,1-.717,1.814A2.689,2.689,0,0,1,391.142,12.17Zm0-1.026a1.25,1.25,0,0,0,.938-.354,1.593,1.593,0,0,0,.372-1.088q.018-.531.018-.717,0-.2-.018-.717a1.554,1.554,0,0,0-.38-1.079,1.382,1.382,0,0,0-1.867,0,1.525,1.525,0,0,0-.372,1.079q-.009.257-.009.717t.009.717a1.585,1.585,0,0,0,.363,1.088A1.279,1.279,0,0,0,391.142,11.143Z" transform="translate(-216.672 -3.234)" fill="#e85128"/>
  <path id="Caminho_11" data-name="Caminho 11" d="M405.337,12.281a2.656,2.656,0,0,1-1.867-.61,2.392,2.392,0,0,1-.664-1.849v-3.6a.236.236,0,0,1,.053-.159A.216.216,0,0,1,403.019,6h.814a.212.212,0,0,1,.221.221v3.6a1.5,1.5,0,0,0,.327,1.053,1.243,1.243,0,0,0,.947.354,1.214,1.214,0,0,0,.938-.354,1.475,1.475,0,0,0,.336-1.053v-3.6A.212.212,0,0,1,406.823,6h.814a.187.187,0,0,1,.15.062.214.214,0,0,1,.062.159v3.6a2.392,2.392,0,0,1-.664,1.849A2.609,2.609,0,0,1,405.337,12.281Z" transform="translate(-224.627 -3.346)" fill="#e85128"/>
  <path id="Caminho_12" data-name="Caminho 12" d="M417.417,12.193a.211.211,0,0,1-.212-.212V6.221a.236.236,0,0,1,.053-.159A.215.215,0,0,1,417.417,6h2.371a2.563,2.563,0,0,1,1.681.5,1.8,1.8,0,0,1,.61,1.469,1.759,1.759,0,0,1-.61,1.451,2.628,2.628,0,0,1-1.681.487h-1.3v2.07a.216.216,0,0,1-.062.159.237.237,0,0,1-.159.053Zm2.327-3.273a1.129,1.129,0,0,0,.779-.239.917.917,0,0,0,.274-.717.95.95,0,0,0-.265-.717,1.072,1.072,0,0,0-.787-.257H418.47V8.919Z" transform="translate(-232.656 -3.346)" fill="#e85128"/>
</svg>
